<svg width="62" height="62" viewBox="0 0 62 62" fill="none" xmlns="http://www.w3.org/2000/svg">
<g filter="url(#filter0_d_5_6963)">
<g clip-path="url(#clip0_5_6963)">
<rect x="3" y="2" width="56" height="56" rx="4" fill="url(#paint0_radial_5_6963)"/>
<path fill-rule="evenodd" clip-rule="evenodd" d="M9.74074 42.855L9.74076 50.7587L3.93311 50.7587L3.93311 51.2587L9.74076 51.2587L9.74077 57.0624H10.2408L10.2408 51.2587L18.1444 51.2586L18.1444 57.0624H18.6444L18.6444 51.2586L26.548 51.2586L26.5481 57.0624H27.0481L27.048 51.2586L34.9517 51.2586L34.9517 57.0624H35.4517L35.4517 51.2586L43.3553 51.2586L43.3554 57.0624H43.8554L43.8553 51.2586L51.759 51.2586L51.759 57.0624H52.259L52.259 51.2586L58.0639 51.2586L58.0639 50.7586L52.259 50.7586L52.259 42.8549L58.0639 42.8549V42.3549L52.259 42.3549L52.259 34.4513L58.0639 34.4513V33.9513L52.259 33.9513L52.2589 26.0476L58.0639 26.0476V25.5476L52.2589 25.5476L52.2589 17.644L58.0639 17.644V17.144L52.2589 17.144L52.2589 9.24033L58.0639 9.24032V8.74032L52.2589 8.74033L52.2589 2.93164H51.7589L51.7589 8.74034L43.8553 8.74035L43.8552 2.93164H43.3552L43.3553 8.74035L35.4516 8.74037L35.4516 2.93164H34.9516L34.9516 8.74037L27.048 8.74039L27.048 2.93164H26.548L26.548 8.74039L18.6443 8.7404L18.6443 2.93164H18.1443L18.1443 8.7404L10.2407 8.74042L10.2407 2.93164H9.74066L9.74067 8.74042L3.93311 8.74043V9.24043L9.74067 9.24042L9.74069 17.1441L3.93311 17.1441V17.6441L9.74069 17.6441L9.74071 25.5477L3.93311 25.5477V26.0477L9.74071 26.0477L9.74072 33.9514L3.93311 33.9514V34.4514L9.74073 34.4514L9.74074 42.355L3.93311 42.355V42.855L9.74074 42.855ZM10.2407 9.24042L10.2407 17.1441L18.1443 17.1441L18.1443 9.2404L10.2407 9.24042ZM18.6443 9.2404L18.6443 17.1441L26.548 17.144L26.548 9.24039L18.6443 9.2404ZM27.048 9.24039L27.048 17.144L34.9516 17.144L34.9516 9.24037L27.048 9.24039ZM35.4516 9.24037L35.4516 17.144L43.3553 17.144L43.3553 9.24035L35.4516 9.24037ZM43.8553 9.24035L43.8553 17.144L51.7589 17.144L51.7589 9.24034L43.8553 9.24035ZM43.8553 17.644L51.7589 17.644L51.7589 25.5476L43.8553 25.5476L43.8553 17.644ZM35.4516 17.644L43.3553 17.644L43.3553 25.5476L35.4516 25.5477L35.4516 17.644ZM27.048 17.644L34.9516 17.644L34.9516 25.5477L27.048 25.5477L27.048 17.644ZM18.6443 17.6441L26.548 17.644L26.548 25.5477L18.6444 25.5477L18.6443 17.6441ZM10.2407 17.6441L18.1443 17.6441L18.1444 25.5477L10.2407 25.5477L10.2407 17.6441ZM10.2407 26.0477L10.2407 33.9514L18.1444 33.9513L18.1444 26.0477L10.2407 26.0477ZM18.6444 26.0477L18.6444 33.9513L26.548 33.9513L26.548 26.0477L18.6444 26.0477ZM27.048 26.0477L27.048 33.9513L34.9517 33.9513L34.9516 26.0477L27.048 26.0477ZM35.4516 26.0477L35.4517 33.9513L43.3553 33.9513L43.3553 26.0476L35.4516 26.0477ZM43.8553 26.0476L43.8553 33.9513L51.759 33.9513L51.7589 26.0476L43.8553 26.0476ZM43.8553 34.4513L51.759 34.4513L51.759 42.3549L43.8553 42.3549L43.8553 34.4513ZM35.4517 34.4513L43.3553 34.4513L43.3553 42.3549L35.4517 42.355L35.4517 34.4513ZM27.048 34.4513L34.9517 34.4513L34.9517 42.355L27.048 42.355L27.048 34.4513ZM18.6444 34.4513L26.548 34.4513L26.548 42.355L18.6444 42.355L18.6444 34.4513ZM10.2407 34.4514L18.1444 34.4513L18.1444 42.355L10.2407 42.355L10.2407 34.4514ZM10.2407 42.855L10.2408 50.7587L18.1444 50.7586L18.1444 42.855L10.2407 42.855ZM18.6444 42.855L18.6444 50.7586L26.548 50.7586L26.548 42.855L18.6444 42.855ZM27.048 42.855L27.048 50.7586L34.9517 50.7586L34.9517 42.855L27.048 42.855ZM35.4517 42.855L35.4517 50.7586L43.3553 50.7586L43.3553 42.8549L35.4517 42.855ZM43.8553 42.8549L43.8553 50.7586L51.759 50.7586L51.759 42.8549L43.8553 42.8549Z" fill="url(#paint1_linear_5_6963)"/>
<g filter="url(#filter1_bf_5_6963)">
<circle cx="27" cy="26" r="14" fill="white"/>
</g>
<g clip-path="url(#clip1_5_6963)">
<path fill-rule="evenodd" clip-rule="evenodd" d="M27.9064 25.7394C28.7269 24.9189 29.8397 24.458 31 24.458C32.1603 24.458 33.2731 24.9189 34.0936 25.7394C34.9141 26.5599 35.375 27.6727 35.375 28.833C35.375 29.9933 34.9141 31.1061 34.0936 31.9266C33.2731 32.7471 32.1603 33.208 31 33.208C29.8397 33.208 28.7269 32.7471 27.9064 31.9266C27.0859 31.1061 26.625 29.9933 26.625 28.833C26.625 27.6727 27.0859 26.5599 27.9064 25.7394ZM31 26.208C30.3038 26.208 29.6361 26.4846 29.1438 26.9769C28.6516 27.4691 28.375 28.1368 28.375 28.833C28.375 29.5292 28.6516 30.1969 29.1438 30.6892C29.6361 31.1814 30.3038 31.458 31 31.458C31.6962 31.458 32.3639 31.1814 32.8562 30.6892C33.3484 30.1969 33.625 29.5292 33.625 28.833C33.625 28.1368 33.3484 27.4691 32.8562 26.9769C32.3639 26.4846 31.6962 26.208 31 26.208Z" fill="#198DCD"/>
<path d="M37.5997 35.4328L32.6495 40.383C32.212 40.8201 31.6189 41.0656 31.0004 41.0656C30.382 41.0656 29.7889 40.8201 29.3513 40.383L24.4 35.4328C23.0948 34.1275 22.2059 32.4645 21.8458 30.654C21.4857 28.8435 21.6706 26.9669 22.377 25.2615C23.0834 23.5561 24.2797 22.0985 25.8146 21.0729C27.3494 20.0474 29.1539 19.5 30.9998 19.5C32.8458 19.5 34.6503 20.0474 36.1851 21.0729C37.72 22.0985 38.9162 23.5561 39.6227 25.2615C40.3291 26.9669 40.514 28.8435 40.1539 30.654C39.7938 32.4645 38.9049 34.1275 37.5997 35.4328Z" stroke="#198DCD" stroke-width="1.75" stroke-linecap="round" stroke-linejoin="round"/>
</g>
</g>
<rect x="2.5" y="1.5" width="57" height="57" rx="4.5" stroke="#DFE1E6"/>
</g>
<defs>
<filter id="filter0_d_5_6963" x="0" y="0" width="62" height="62" filterUnits="userSpaceOnUse" color-interpolation-filters="sRGB">
<feFlood flood-opacity="0" result="BackgroundImageFix"/>
<feColorMatrix in="SourceAlpha" type="matrix" values="0 0 0 0 0 0 0 0 0 0 0 0 0 0 0 0 0 0 127 0" result="hardAlpha"/>
<feOffset dy="1"/>
<feGaussianBlur stdDeviation="1"/>
<feComposite in2="hardAlpha" operator="out"/>
<feColorMatrix type="matrix" values="0 0 0 0 0.0901961 0 0 0 0 0.168627 0 0 0 0 0.301961 0 0 0 0.07 0"/>
<feBlend mode="normal" in2="BackgroundImageFix" result="effect1_dropShadow_5_6963"/>
<feBlend mode="normal" in="SourceGraphic" in2="effect1_dropShadow_5_6963" result="shape"/>
</filter>
<filter id="filter1_bf_5_6963" x="-47" y="-48" width="148" height="148" filterUnits="userSpaceOnUse" color-interpolation-filters="sRGB">
<feFlood flood-opacity="0" result="BackgroundImageFix"/>
<feGaussianBlur in="BackgroundImageFix" stdDeviation="30"/>
<feComposite in2="SourceAlpha" operator="in" result="effect1_backgroundBlur_5_6963"/>
<feBlend mode="normal" in="SourceGraphic" in2="effect1_backgroundBlur_5_6963" result="shape"/>
<feGaussianBlur stdDeviation="12" result="effect2_foregroundBlur_5_6963"/>
</filter>
<radialGradient id="paint0_radial_5_6963" cx="0" cy="0" r="1" gradientUnits="userSpaceOnUse" gradientTransform="translate(27.8122 3.1432) rotate(89.6213) scale(53.4084 123.477)">
<stop stop-color="#FCFCFC"/>
<stop offset="0.526042" stop-color="white"/>
<stop offset="1" stop-color="#FCFCFC"/>
</radialGradient>
<linearGradient id="paint1_linear_5_6963" x1="30.9985" y1="2.93164" x2="30.9985" y2="57.0624" gradientUnits="userSpaceOnUse">
<stop stop-color="#EBECF0" stop-opacity="0.3"/>
<stop offset="0.46875" stop-color="#FAFBFC"/>
<stop offset="1" stop-color="#EBECF0" stop-opacity="0.3"/>
</linearGradient>
<clipPath id="clip0_5_6963">
<rect x="3" y="2" width="56" height="56" rx="4" fill="white"/>
</clipPath>
<clipPath id="clip1_5_6963">
<rect width="28" height="28" fill="white" transform="translate(17 16)"/>
</clipPath>
</defs>
</svg>
