<svg width="62" height="62" viewBox="0 0 62 62" fill="none" xmlns="http://www.w3.org/2000/svg">
<g filter="url(#filter0_d_5_7748)">
<g clip-path="url(#clip0_5_7748)">
<rect x="3" y="2" width="56" height="56" rx="4" fill="url(#paint0_radial_5_7748)"/>
<path fill-rule="evenodd" clip-rule="evenodd" d="M9.74123 42.855L9.74125 50.7587L3.93359 50.7587L3.9336 51.2587L9.74125 51.2587L9.74126 57.0624H10.2413L10.2412 51.2587L18.1449 51.2586L18.1449 57.0624H18.6449L18.6449 51.2586L26.5485 51.2586L26.5485 57.0624H27.0485L27.0485 51.2586L34.9522 51.2586L34.9522 57.0624H35.4522L35.4522 51.2586L43.3558 51.2586L43.3558 57.0624H43.8558L43.8558 51.2586L51.7595 51.2586L51.7595 57.0624H52.2595L52.2595 51.2586L58.0644 51.2586L58.0644 50.7586L52.2595 50.7586L52.2595 42.8549L58.0644 42.8549V42.3549L52.2595 42.3549L52.2594 34.4513L58.0644 34.4513V33.9513L52.2594 33.9513L52.2594 26.0476L58.0644 26.0476V25.5476L52.2594 25.5476L52.2594 17.644L58.0644 17.644V17.144L52.2594 17.144L52.2594 9.24033L58.0644 9.24032V8.74032L52.2594 8.74033L52.2594 2.93164H51.7594L51.7594 8.74034L43.8557 8.74035L43.8557 2.93164H43.3557L43.3557 8.74035L35.4521 8.74037L35.4521 2.93164H34.9521L34.9521 8.74037L27.0485 8.74039L27.0484 2.93164H26.5484L26.5485 8.74039L18.6448 8.7404L18.6448 2.93164H18.1448L18.1448 8.7404L10.2412 8.74042L10.2412 2.93164H9.74115L9.74116 8.74042L3.93359 8.74043V9.24043L9.74116 9.24042L9.74118 17.1441L3.93359 17.1441V17.6441L9.74118 17.6441L9.7412 25.5477L3.93359 25.5477V26.0477L9.7412 26.0477L9.74121 33.9514L3.93359 33.9514V34.4514L9.74121 34.4514L9.74123 42.355L3.93359 42.355V42.855L9.74123 42.855ZM10.2412 9.24042L10.2412 17.1441L18.1448 17.1441L18.1448 9.2404L10.2412 9.24042ZM18.6448 9.2404L18.6448 17.1441L26.5485 17.144L26.5485 9.24039L18.6448 9.2404ZM27.0485 9.24039L27.0485 17.144L34.9521 17.144L34.9521 9.24037L27.0485 9.24039ZM35.4521 9.24037L35.4521 17.144L43.3558 17.144L43.3557 9.24035L35.4521 9.24037ZM43.8557 9.24035L43.8558 17.144L51.7594 17.144L51.7594 9.24034L43.8557 9.24035ZM43.8558 17.644L51.7594 17.644L51.7594 25.5476L43.8558 25.5476L43.8558 17.644ZM35.4521 17.644L43.3558 17.644L43.3558 25.5476L35.4521 25.5477L35.4521 17.644ZM27.0485 17.644L34.9521 17.644L34.9521 25.5477L27.0485 25.5477L27.0485 17.644ZM18.6448 17.6441L26.5485 17.644L26.5485 25.5477L18.6448 25.5477L18.6448 17.6441ZM10.2412 17.6441L18.1448 17.6441L18.1448 25.5477L10.2412 25.5477L10.2412 17.6441ZM10.2412 26.0477L10.2412 33.9514L18.1449 33.9513L18.1448 26.0477L10.2412 26.0477ZM18.6448 26.0477L18.6449 33.9513L26.5485 33.9513L26.5485 26.0477L18.6448 26.0477ZM27.0485 26.0477L27.0485 33.9513L34.9522 33.9513L34.9521 26.0477L27.0485 26.0477ZM35.4521 26.0477L35.4522 33.9513L43.3558 33.9513L43.3558 26.0476L35.4521 26.0477ZM43.8558 26.0476L43.8558 33.9513L51.7594 33.9513L51.7594 26.0476L43.8558 26.0476ZM43.8558 34.4513L51.7594 34.4513L51.7595 42.3549L43.8558 42.3549L43.8558 34.4513ZM35.4522 34.4513L43.3558 34.4513L43.3558 42.3549L35.4522 42.355L35.4522 34.4513ZM27.0485 34.4513L34.9522 34.4513L34.9522 42.355L27.0485 42.355L27.0485 34.4513ZM18.6449 34.4513L26.5485 34.4513L26.5485 42.355L18.6449 42.355L18.6449 34.4513ZM10.2412 34.4514L18.1449 34.4513L18.1449 42.355L10.2412 42.355L10.2412 34.4514ZM10.2412 42.855L10.2412 50.7587L18.1449 50.7586L18.1449 42.855L10.2412 42.855ZM18.6449 42.855L18.6449 50.7586L26.5485 50.7586L26.5485 42.855L18.6449 42.855ZM27.0485 42.855L27.0485 50.7586L34.9522 50.7586L34.9522 42.855L27.0485 42.855ZM35.4522 42.855L35.4522 50.7586L43.3558 50.7586L43.3558 42.8549L35.4522 42.855ZM43.8558 42.8549L43.8558 50.7586L51.7595 50.7586L51.7595 42.8549L43.8558 42.8549Z" fill="url(#paint1_linear_5_7748)"/>
<g filter="url(#filter1_bf_5_7748)">
<circle cx="27" cy="26" r="14" fill="white"/>
</g>
<g clip-path="url(#clip1_5_7748)">
<path d="M22.833 40.5V21.8333C22.833 21.2145 23.0788 20.621 23.5164 20.1834C23.954 19.7458 24.5475 19.5 25.1663 19.5H36.833C37.4518 19.5 38.0453 19.7458 38.4829 20.1834C38.9205 20.621 39.1663 21.2145 39.1663 21.8333V40.5L35.6663 38.1667L33.333 40.5L30.9997 38.1667L28.6663 40.5L26.333 38.1667L22.833 40.5Z" stroke="#198DCD" stroke-width="1.75" stroke-linecap="round" stroke-linejoin="round"/>
<path d="M33.3337 25.333H30.417C29.9529 25.333 29.5077 25.5174 29.1796 25.8456C28.8514 26.1738 28.667 26.6189 28.667 27.083C28.667 27.5471 28.8514 27.9923 29.1796 28.3204C29.5077 28.6486 29.9529 28.833 30.417 28.833H31.5837C32.0478 28.833 32.4929 29.0174 32.8211 29.3456C33.1493 29.6738 33.3337 30.1189 33.3337 30.583C33.3337 31.0471 33.1493 31.4923 32.8211 31.8204C32.4929 32.1486 32.0478 32.333 31.5837 32.333H28.667M31.0003 32.333V34.083M31.0003 23.583V25.333" stroke="#198DCD" stroke-width="1.75" stroke-linecap="round" stroke-linejoin="round"/>
</g>
</g>
<rect x="2.5" y="1.5" width="57" height="57" rx="4.5" stroke="#DFE1E6"/>
</g>
<defs>
<filter id="filter0_d_5_7748" x="0" y="0" width="62" height="62" filterUnits="userSpaceOnUse" color-interpolation-filters="sRGB">
<feFlood flood-opacity="0" result="BackgroundImageFix"/>
<feColorMatrix in="SourceAlpha" type="matrix" values="0 0 0 0 0 0 0 0 0 0 0 0 0 0 0 0 0 0 127 0" result="hardAlpha"/>
<feOffset dy="1"/>
<feGaussianBlur stdDeviation="1"/>
<feComposite in2="hardAlpha" operator="out"/>
<feColorMatrix type="matrix" values="0 0 0 0 0.0901961 0 0 0 0 0.168627 0 0 0 0 0.301961 0 0 0 0.07 0"/>
<feBlend mode="normal" in2="BackgroundImageFix" result="effect1_dropShadow_5_7748"/>
<feBlend mode="normal" in="SourceGraphic" in2="effect1_dropShadow_5_7748" result="shape"/>
</filter>
<filter id="filter1_bf_5_7748" x="-47" y="-48" width="148" height="148" filterUnits="userSpaceOnUse" color-interpolation-filters="sRGB">
<feFlood flood-opacity="0" result="BackgroundImageFix"/>
<feGaussianBlur in="BackgroundImageFix" stdDeviation="30"/>
<feComposite in2="SourceAlpha" operator="in" result="effect1_backgroundBlur_5_7748"/>
<feBlend mode="normal" in="SourceGraphic" in2="effect1_backgroundBlur_5_7748" result="shape"/>
<feGaussianBlur stdDeviation="12" result="effect2_foregroundBlur_5_7748"/>
</filter>
<radialGradient id="paint0_radial_5_7748" cx="0" cy="0" r="1" gradientUnits="userSpaceOnUse" gradientTransform="translate(27.8122 3.1432) rotate(89.6213) scale(53.4084 123.477)">
<stop stop-color="#FCFCFC"/>
<stop offset="0.526042" stop-color="white"/>
<stop offset="1" stop-color="#FCFCFC"/>
</radialGradient>
<linearGradient id="paint1_linear_5_7748" x1="30.999" y1="2.93164" x2="30.999" y2="57.0624" gradientUnits="userSpaceOnUse">
<stop stop-color="#EBECF0" stop-opacity="0.3"/>
<stop offset="0.46875" stop-color="#FAFBFC"/>
<stop offset="1" stop-color="#EBECF0" stop-opacity="0.3"/>
</linearGradient>
<clipPath id="clip0_5_7748">
<rect x="3" y="2" width="56" height="56" rx="4" fill="white"/>
</clipPath>
<clipPath id="clip1_5_7748">
<rect width="28" height="28" fill="white" transform="translate(17 16)"/>
</clipPath>
</defs>
</svg>
